# xmcd
#
# Track frame offsets: 
#        150
#        14178
#        26258
#        39080
#        53063
#        66125
#        77548
#        89795
#        99160
#        117333
#        129090
#        141003
#        153868
#        167843
#        181178
#        195653
#        211563
#
# Disc length: 2940 seconds
#
# Revision: 3
# Processed by: cddbd v1.5.1PL0 Copyright (c) Steve Scherf et al.
# Submitted via: ExactAudioCopy v0.90b4
#
DISCID=ce0b7a11
DTITLE=Huey Lewis and The News - Four Chords and Several Years Ago
DYEAR=1994
DGENRE=Blues
TTITLE0=Shake Rattle And Roll
TTITLE1=Blue Monday
TTITLE2=Searching For My Love
TTITLE3=(She's) Some Kind Of Wonderful
TTITLE4=But It's Alright
TTITLE5=If You Gotta Make A Fool Of Somebody
TTITLE6=Mother In Law
TTITLE7=Little Bitty Pretty One
TTITLE8=Good Morning Little School Girl
TTITLE9=Stagger Lee
TTITLE10=She Shot A Hole In My Soul
TTITLE11=Surely I Love You
TTITLE12=You Left The Water Running
TTITLE13=Your Cash Ain't Nothin' But Trash
TTITLE14=Function At The Junction
TTITLE15=Better To Have And Not Need
TTITLE16=Going Down Slow
EXTD=
EXTT0=
EXTT1=
EXTT2=
EXTT3=
EXTT4=
EXTT5=
EXTT6=
EXTT7=
EXTT8=
EXTT9=
EXTT10=
EXTT11=
EXTT12=
EXTT13=
EXTT14=
EXTT15=
EXTT16=
PLAYORDER=
